<svg width="87" height="87" viewBox="0 0 87 87" fill="none" xmlns="http://www.w3.org/2000/svg">
<path d="M84.7486 20.1095L45.9122 0.493918C45.2689 0.14112 44.3845 0 43.4196 0C42.4547 0 41.5702 0.211679 40.927 0.493918L2.33179 20.1801C0.964879 20.8857 0 22.6497 0 23.9903V63.2921C0 64.0682 0.160813 64.9855 0.804066 65.7617L86.6784 22.0146C86.1959 21.1679 85.4723 20.5329 84.7486 20.1095Z" fill="#C0CAF5"/>
<path d="M0.804066 65.4793C1.2061 66.0438 1.76895 66.5377 2.33179 66.8199L41.0878 86.5061C41.7311 86.8589 42.6155 87 43.5804 87C44.5453 87 45.4298 86.7883 46.073 86.5061L84.6682 66.8199C86.0351 66.1143 87 64.3503 87 63.0097V23.7079C87 23.0729 86.9196 22.3673 86.5176 21.7323L0.804066 65.4793Z" fill="#C0CAF5"/>
<path d="M60.5462 52.1435C57.1691 57.3649 50.7366 60.8929 43.4196 60.8929C32.5647 60.8929 23.72 53.1313 23.72 43.6058C23.72 34.0802 32.5647 26.3186 43.4196 26.3186C50.7366 26.3186 57.1691 29.8466 60.5462 35.1386L70.9991 29.8466C65.5314 21.45 55.2394 15.7347 43.4196 15.7347C25.8909 15.7347 11.659 28.2238 11.659 43.6058C11.659 58.9878 25.8909 71.4769 43.4196 71.4769C55.159 71.4769 65.451 65.8321 70.9187 57.506L60.5462 52.1435ZM69.9538 45.1581L70.6774 42.124H67.3004V38.8077H71.4011L72.366 34.433H76.3059L75.341 38.7372H78.3965L79.3614 34.433H83.2209L82.256 38.7372H84.1858V42.0535H81.5323L80.8087 45.0875H84.1858V48.4038H80.085L79.1201 52.6374H75.1802L76.1451 48.4038H73.0896L72.1248 52.6374H68.2652L69.2301 48.4038H67.3004V45.0875H69.9538V45.1581ZM73.8133 45.1581H76.8688L77.5924 42.124H74.537L73.8133 45.1581Z" fill="#414868"/>
</svg>
