<svg width="87" height="87" viewBox="0 0 87 87" fill="none" xmlns="http://www.w3.org/2000/svg">
<path d="M85.3588 39.625L47.3735 1.64063C45.1874 -0.546877 41.6395 -0.546877 39.4499 1.64063L31.5629 9.52917L41.5685 19.5349C43.8945 18.7499 46.5603 19.2765 48.4135 21.1297C50.2764 22.9947 50.7988 25.6832 49.9945 28.0169L59.6376 37.6608C61.9705 36.8565 64.6632 37.3761 66.5254 39.2425C69.1305 41.8456 69.1305 46.0655 66.5254 48.67C65.9063 49.2894 65.1712 49.7807 64.3622 50.116C63.5532 50.4512 62.686 50.6237 61.8103 50.6237C60.9345 50.6237 60.0674 50.4512 59.2584 50.116C58.4493 49.7807 57.7143 49.2894 57.0952 48.67C56.1651 47.7393 55.531 46.5542 55.2729 45.264C55.0147 43.9737 55.144 42.6359 55.6445 41.419L46.6519 32.4263L46.6506 56.094C47.303 56.4153 47.8987 56.8409 48.4142 57.3539C51.0179 59.957 51.0179 64.1755 48.4142 66.7842C45.8098 69.3872 41.5885 69.3872 38.9868 66.7842C36.383 64.1762 36.383 59.9577 38.9868 57.3539C39.6106 56.7291 40.3526 56.2347 41.1695 55.8997V32.0128C40.3519 31.6787 39.6097 31.184 38.9868 30.5579C37.0143 28.5868 36.5395 25.6922 37.5512 23.269L27.6869 13.4045L1.64109 39.4492C0.590302 40.5004 0 41.9258 0 43.4121C0 44.8984 0.590302 46.3239 1.64109 47.375L39.6271 85.3594C41.8145 87.5469 45.3611 87.5469 47.552 85.3594L85.3595 47.5514C86.41 46.5 87.0001 45.0744 87 43.5881C86.9999 42.1017 86.4095 40.6762 85.3588 39.625Z" fill="#C0CAF5"/>
</svg>
