<svg width="87" height="87" viewBox="0 0 87 87" fill="none" xmlns="http://www.w3.org/2000/svg">
<path d="M43.5 84.7883C66.3028 84.7883 84.7883 66.3028 84.7883 43.5C84.7883 20.6972 66.3028 2.2117 43.5 2.2117C20.6965 2.2117 2.2117 20.6972 2.2117 43.5C2.2117 66.3035 20.6972 84.7883 43.5 84.7883Z" fill="#C0CAF5"/>
<path d="M43.5 0C19.4758 0 0 19.4758 0 43.5C0 67.5242 19.4758 87 43.5 87C67.5242 87 87 67.5242 87 43.5C87 19.4758 67.5242 0 43.5 0ZM43.5 4.42409C65.0814 4.42409 82.5766 21.9192 82.5766 43.5C82.5766 65.0814 65.0814 82.5766 43.5 82.5766C21.9186 82.5766 4.42341 65.0814 4.42341 43.5C4.42341 21.9186 21.9186 4.42409 43.5 4.42409Z" fill="#414868"/>
<path d="M43.9914 12.5334C61.0937 12.5334 74.958 26.3977 74.958 43.5C74.958 60.6023 61.0937 74.4666 43.9914 74.4666C26.8898 74.4666 13.0255 60.6023 13.0255 43.5C13.0202 39.4508 13.8116 35.4401 15.3548 31.6965C17.5461 34.6811 21.0812 36.6188 25.0676 36.6188C31.719 36.6188 37.1103 31.2276 37.1103 24.5761C37.1103 20.5891 35.1731 17.0547 32.188 14.8634C35.9316 13.3205 39.9423 12.5284 43.9914 12.5334Z" fill="#414868"/>
</svg>
