<svg width="87" height="87" viewBox="0 0 87 87" fill="none" xmlns="http://www.w3.org/2000/svg">
<path d="M0 0H87V87H0V0Z" fill="#C0CAF5"/>
<path d="M79.8795 66.25C79.2422 62.281 76.6541 58.9472 68.9878 55.8386C66.3247 54.6148 63.3557 53.7384 62.471 51.7202C62.1569 50.5457 62.1152 49.8841 62.314 49.1732C62.8845 46.8659 65.6387 46.1466 67.8217 46.8082C69.2276 47.2794 70.5585 48.3628 71.3612 50.0912C75.1154 47.6602 75.1078 47.6762 77.7293 46.0055C76.7695 44.5176 76.2573 43.8309 75.629 43.1943C73.3711 40.6723 70.2944 39.3734 65.374 39.4728L62.8109 39.8043C60.3548 40.4249 58.0142 41.714 56.6416 43.4424C52.5231 48.1154 53.6977 56.2938 58.7091 59.6596C63.6462 63.3652 70.899 64.2082 71.8254 67.6733C72.7268 71.9154 68.7078 73.2887 64.713 72.8008C61.7691 72.1885 60.1317 70.6923 58.3616 67.9714C55.1036 69.8569 55.1036 69.8569 51.7538 71.7834C52.5482 73.5201 53.3828 74.3061 54.7144 75.8107C61.0165 82.2031 76.7869 81.8889 79.6154 72.2136C79.7301 71.8814 80.4918 69.6658 79.8795 66.25ZM47.2955 39.985H39.158L39.1247 61.0231C39.1247 65.4973 39.3561 69.5991 38.6285 70.8563C37.438 73.329 34.353 73.0225 32.947 72.543C31.5161 71.8397 30.7884 70.8396 29.9454 69.426C29.714 69.0202 29.5403 68.706 29.4819 68.6817L22.8657 72.7334C23.9658 74.9914 25.5865 76.9512 27.6624 78.2244C30.7634 80.0855 34.9312 80.6561 39.2901 79.6553C42.127 78.829 44.5747 77.1173 45.8562 74.5118C47.709 71.096 47.3115 66.9617 47.2948 62.3887C47.3365 54.9282 47.2955 47.4691 47.2955 39.985Z" fill="#414868"/>
</svg>
