<svg width="87" height="87" viewBox="0 0 87 87" fill="none" xmlns="http://www.w3.org/2000/svg">
<path d="M65.1355 63.4634C65.7104 58.824 65.5383 58.143 69.1017 58.895L70.0061 58.9717C72.7464 59.0925 76.331 58.5442 78.4371 57.5955C82.9709 55.5553 85.6584 52.1502 81.1892 53.0442C70.9925 55.0845 70.2917 51.7362 70.2917 51.7362C81.0588 36.2445 85.5596 16.5787 81.6739 11.7647C71.0774 -1.365 52.7353 4.84372 52.4285 5.00421L52.3304 5.02197C50.3158 4.61648 48.061 4.37432 45.5279 4.33455C40.9137 4.2607 37.4125 5.5077 34.7564 7.46058C34.7564 7.46058 2.0347 -5.61232 3.55717 23.9009C3.88085 30.1793 12.837 71.4077 23.5199 58.9547C27.4246 54.4013 31.1974 50.5509 31.1974 50.5509C33.0707 51.7575 35.3144 52.3739 37.6666 52.1523L37.849 52.0018C37.7918 52.567 37.8167 53.1202 37.9215 53.775C35.1702 56.7568 35.9786 57.2802 30.4768 58.3781C24.9098 59.4901 28.1803 61.4707 30.315 61.9884C32.9037 62.6162 38.8918 63.5053 42.9385 58.0131L42.7774 58.6394C43.8568 59.4774 43.7843 64.6592 43.9366 68.3612C44.0897 72.0638 44.3453 75.5186 45.1237 77.556C45.9022 79.5927 46.8205 84.8392 54.0513 83.3365C60.0943 82.0838 64.7144 80.2765 65.1355 63.4634Z" fill="#C0CAF5"/>
<path d="M51.6967 87C48.4988 87 46.4161 85.8006 45.1514 84.6423C43.2422 82.8954 42.485 80.645 42.0325 79.3007L41.8369 78.7397C40.926 76.3551 40.6169 72.9215 40.4338 68.5002C40.406 67.8363 40.387 67.1524 40.3657 66.4274C40.3504 65.8969 40.3313 65.2315 40.3035 64.5355C39.1513 65.0683 37.9284 65.443 36.6698 65.649C34.415 66.0226 31.9911 65.9018 29.4639 65.289C27.6807 64.8565 25.828 63.9603 24.772 62.5763C21.6941 65.1903 18.7583 64.8359 17.1589 64.3182C14.3373 63.4057 11.8123 60.8414 9.4389 56.4805C7.748 53.3736 6.11276 49.3258 4.57784 44.4486C1.90491 35.9554 0.206691 27.0098 0.0558357 24.0727C-0.4187 14.88 2.13339 8.30552 7.63962 4.53399C16.3255 -1.41553 29.4858 2.08331 34.2839 3.67188C37.5075 1.78789 41.3002 0.871105 45.5856 0.937148C47.8873 0.973365 50.0791 1.16936 52.1149 1.52159C54.2386 0.873946 58.4332 -0.0556231 63.235 0.00260804C72.082 0.104868 79.4131 3.44819 84.4346 9.67112C88.0185 14.1109 86.2463 23.4343 84.8718 28.597C82.937 35.8588 79.5472 43.5823 75.3833 50.3058C76.5139 50.3136 78.1521 50.1823 80.4809 49.7157C85.0754 48.7961 86.4191 51.185 86.7838 52.2545C88.2448 56.5451 81.8942 59.7876 79.9133 60.6795C77.3751 61.8221 73.2369 62.518 69.8477 62.3675L69.6998 62.3583L68.8093 62.2823L68.7214 63.0024L68.6365 63.7061C68.4087 72.227 67.1536 77.6234 64.5707 81.189C61.8634 84.9271 58.1008 85.9746 54.7864 86.6634C53.6557 86.8977 52.6282 87 51.6967 87ZM44.9668 55.9876C47.0312 57.5897 47.2121 60.6042 47.3739 66.2377C47.3944 66.9408 47.4135 67.6062 47.4391 68.2275C47.5167 70.1094 47.6991 74.5158 48.4109 76.3778C48.5112 76.6412 48.6013 76.9083 48.6965 77.1916C49.4896 79.5464 49.8872 80.7274 53.3166 80.0165C56.1953 79.4179 57.6753 78.881 58.8338 77.2818C60.5174 74.9568 61.4591 70.2798 61.632 63.3809L65.1346 63.4632L61.6561 63.0585L61.7587 62.2162C62.0919 59.4396 62.3321 57.4342 64.2456 56.1076C65.7812 55.0439 67.5307 55.1468 68.9243 55.3904C67.393 54.2684 66.9698 52.9525 66.857 52.4128L66.5648 51.0174L67.3857 49.8364C72.1142 43.0333 76.013 34.6722 78.084 26.8962C80.2121 18.9064 79.5633 14.6634 78.9144 13.8609C70.3252 3.21811 55.4308 7.61243 53.8754 8.11095L53.6125 8.24871L52.2943 8.48661L51.6191 8.35097C49.7576 7.97602 47.6896 7.76866 45.4729 7.73386C41.99 7.67705 39.1801 8.47525 36.8763 10.1703L35.2777 11.3456L33.4227 10.6049C29.4595 9.03341 17.8187 5.87402 11.6761 10.0929C8.26648 12.435 6.71325 17.0239 7.0589 23.7325C7.17314 25.9474 8.7249 34.332 11.285 42.4638C14.8228 53.7017 18.0377 57.4349 19.38 57.8688C19.6143 57.9455 20.2221 57.4874 20.827 56.783C23.3491 53.8511 25.9607 50.9927 28.6583 48.2116L30.6868 46.1416L33.1393 47.7216C34.1279 48.3586 35.2183 48.7201 36.338 48.7883L42.187 43.9508L41.3397 52.3361C41.3207 52.5243 41.3112 52.7807 41.3873 53.2564L41.6422 54.8457L40.5364 56.0444L40.4089 56.1836L43.6223 57.6217L44.9668 55.9876Z" fill="#C0CAF5"/>
<path d="M81.1892 53.0442C70.9918 55.0845 70.291 51.7361 70.291 51.7361C81.0581 36.2438 85.5588 16.5773 81.6747 11.7647C71.0782 -1.36432 52.7346 4.84441 52.4285 5.00561L52.3296 5.02265C50.315 4.61716 48.0603 4.37572 45.5258 4.33595C40.9115 4.2628 37.4118 5.50909 34.7557 7.46197C34.7557 7.46197 2.03323 -5.61022 3.55497 23.9023C3.87865 30.1814 12.8348 71.4098 23.5177 58.9568C27.4224 54.4034 31.1945 50.553 31.1945 50.553C33.0685 51.7596 35.3115 52.376 37.663 52.1544L37.846 52.0039C37.7889 52.5691 37.8153 53.1223 37.9193 53.7771C35.1673 56.7589 35.9757 57.2823 30.4739 58.3802C24.9069 59.4922 28.1774 61.4728 30.3128 61.9905C32.9008 62.6183 38.8896 63.5074 42.9356 58.0152L42.7737 58.6415C43.8524 59.4795 44.6096 64.0897 44.4829 68.2688C44.3555 72.448 44.2706 75.3176 45.1208 77.5588C45.9703 79.8 46.8168 84.842 54.0491 83.3393C60.0921 82.0838 63.2234 78.8293 63.6599 73.401C63.9689 69.5414 64.6683 70.1123 64.713 66.6618L65.2746 65.0285C65.922 59.7969 65.3772 58.1096 69.1009 58.8943L70.0054 58.971C72.7456 59.0917 76.3318 58.5435 78.4371 57.5948C82.9701 55.556 85.6584 52.1502 81.1892 53.0442Z" fill="#C0CAF5"/>
<path d="M52.0625 84.906C46.0341 84.906 44.1243 80.2766 43.3429 78.3834C42.199 75.6089 41.9522 64.8418 42.2071 56.012C42.2109 55.8631 42.245 55.7164 42.3075 55.5803C42.37 55.4442 42.4597 55.3215 42.5713 55.2192C42.6829 55.1169 42.8144 55.037 42.958 54.9842C43.1016 54.9313 43.2545 54.9065 43.4081 54.9113C43.5614 54.9153 43.7125 54.9486 43.8526 55.0093C43.9926 55.07 44.119 55.1569 44.2244 55.265C44.3299 55.3731 44.4123 55.5003 44.467 55.6393C44.5216 55.7784 44.5475 55.9265 44.5431 56.0752C44.2495 66.2592 44.6662 75.4882 45.5127 77.5419C46.8338 80.7439 48.8374 83.5447 54.5018 82.368C59.8791 81.2495 61.893 79.2725 62.7901 74.2298C63.4784 70.3603 64.8398 59.3518 65.0075 57.1794C65.0187 57.031 65.06 56.8861 65.1291 56.7532C65.1981 56.6203 65.2936 56.5019 65.4099 56.4047C65.5262 56.3076 65.6612 56.2337 65.807 56.1873C65.9528 56.1409 66.1067 56.1228 66.2597 56.1341C66.5686 56.1568 66.8556 56.2974 67.0577 56.5251C67.2598 56.7528 67.3605 57.0489 67.3377 57.3485C67.1627 59.6102 65.8079 70.5975 65.0932 74.6154C64.0343 80.5713 61.2962 83.2727 54.9917 84.5836C53.9204 84.8059 52.9471 84.9053 52.0625 84.906ZM19.3752 62.2946C18.8483 62.2928 18.3251 62.2089 17.8256 62.046C13.91 60.7791 10.1803 54.5953 6.73993 43.6641C4.1212 35.3435 2.46179 26.6585 2.31606 23.8357C1.88473 15.4675 4.10655 9.54704 8.92148 6.23994C18.4466 -0.30468 34.4702 5.92748 35.1476 6.19591C35.4346 6.30957 35.6632 6.52912 35.7833 6.80626C35.9033 7.0834 35.9049 7.39543 35.7877 7.6737C35.6705 7.95197 35.4441 8.1737 35.1583 8.29009C34.8725 8.40649 34.5507 8.40802 34.2637 8.29436C34.1092 8.23329 18.7439 2.26388 10.2675 8.09197C6.15042 10.9226 4.26034 16.1818 4.64919 23.7228C4.77149 26.101 6.32178 34.5772 8.9742 43.0023C12.0455 52.761 15.5408 58.9186 18.5645 59.8964C19.039 60.0498 20.4832 60.5164 22.5475 58.109C24.955 55.3053 27.4526 52.5756 30.0369 49.924C30.2531 49.7148 30.5452 49.5961 30.8506 49.5931C31.1559 49.5901 31.4504 49.7032 31.6709 49.9081C31.8914 50.1131 32.0204 50.3935 32.0304 50.6895C32.0403 50.9855 31.9304 51.2736 31.7241 51.492C31.6889 51.5275 28.1746 55.0902 24.3446 59.5584C22.5307 61.6739 20.7922 62.2946 19.3752 62.2946ZM70.2186 52.7468C70.0068 52.7465 69.799 52.6904 69.6175 52.5845C69.436 52.4785 69.2876 52.3268 69.1881 52.1454C69.0887 51.964 69.042 51.7598 69.053 51.5546C69.064 51.3495 69.1322 51.1511 69.2505 50.9807C80.1348 35.3186 83.9552 16.3942 80.6833 12.3393C76.5648 7.23626 70.7495 4.57112 63.3979 4.41702C57.9546 4.3034 53.6282 5.65123 52.9207 5.88629L52.7428 5.95659C52.0317 6.17318 51.4862 5.79539 51.2804 5.35369C51.1631 5.10062 51.1453 4.81466 51.2304 4.54975C51.3155 4.28485 51.4977 4.0593 51.7425 3.91566C51.7762 3.89649 51.8831 3.85246 52.0566 3.79068C53.2583 3.36388 57.6507 2.08564 63.091 2.146C71.2255 2.2298 77.9452 5.27131 82.5221 10.9432C84.6876 13.6268 84.6927 19.8092 82.536 27.9062C80.3376 36.1615 76.2008 45.0333 71.1874 52.2475C70.9634 52.5721 70.5943 52.7468 70.2186 52.7468ZM70.7752 59.9973C68.9166 59.9973 67.2506 59.743 66.2532 59.1636C65.2279 58.5678 65.0324 57.7582 65.0068 57.3286C64.727 52.5636 67.438 51.7341 68.8206 51.3556C68.628 51.073 68.3541 50.7406 68.0707 50.3976C67.2645 49.4205 66.1601 48.0826 65.3092 46.0814C65.1759 45.769 64.7585 45.0425 64.2752 44.201C61.6543 39.6433 56.2008 30.1595 59.7041 25.3028C61.3255 23.0553 64.5542 22.1704 69.3113 22.664C67.9118 18.5296 61.2478 5.59655 45.4351 5.34517C40.6795 5.26847 36.7792 6.68661 33.8485 9.55627C27.287 15.9823 27.5243 27.6094 27.528 27.7258C27.532 27.8746 27.5058 28.0226 27.4508 28.1615C27.3959 28.3005 27.3132 28.4275 27.2076 28.5355C27.102 28.6434 26.9755 28.7301 26.8353 28.7907C26.6952 28.8512 26.5441 28.8844 26.3907 28.8883C26.2373 28.8922 26.0846 28.8668 25.9414 28.8135C25.7981 28.7602 25.6671 28.6801 25.5558 28.5777C25.4444 28.4752 25.355 28.3526 25.2926 28.2167C25.2302 28.0807 25.1959 27.9342 25.1919 27.7855C25.1773 27.2692 24.9327 15.0676 32.1884 7.96131C35.5841 4.63574 40.0541 2.9939 45.4739 3.07983C55.59 3.24103 62.1017 8.22832 65.7823 12.3833C69.7946 16.9119 71.7616 21.907 71.9234 23.5744C72.0442 24.8143 71.1267 25.0621 70.9414 25.099L70.5196 25.1083C65.8511 24.3832 62.856 24.8867 61.6176 26.6024C58.9528 30.2958 64.1119 39.267 66.3147 43.0981C66.8771 44.0753 67.2828 44.7819 67.4688 45.2179C68.1923 46.9194 69.1363 48.0627 69.8942 48.9816C70.5613 49.7898 71.1391 50.4907 71.3456 51.313C71.4416 51.4763 72.8029 53.4292 80.881 51.8122C82.9058 51.4075 84.12 51.7533 84.4913 52.8419C85.2214 54.983 81.1249 57.4805 78.8569 58.5017C76.8248 59.4178 73.5814 59.9973 70.7752 59.9973ZM67.3362 57.1418C67.5925 57.3925 68.8748 57.825 71.5302 57.7142C73.8911 57.6162 76.381 57.1184 77.8749 56.4459C79.7855 55.5852 81.0612 54.623 81.7217 53.9661L81.3555 54.0314C76.1906 55.0654 72.5371 54.9276 70.4969 53.6217C70.3598 53.5338 70.2278 53.4387 70.1014 53.3369C69.8803 53.4214 69.676 53.4768 69.5302 53.5166C68.3732 53.8312 67.1766 54.1571 67.3362 57.1418ZM33.9708 63.4727C32.6878 63.4727 31.3374 63.303 29.9585 62.9685C28.5298 62.6219 26.1212 61.5787 26.1578 59.8652C26.1996 57.9428 29.0827 57.3662 30.1679 57.1496C34.0887 56.3663 34.3443 56.0525 35.5694 54.5434C35.9268 54.1038 36.3713 53.5563 36.9777 52.9002C37.8777 51.923 38.8612 51.4281 39.901 51.4281C40.6253 51.4281 41.2192 51.6659 41.6117 51.8243C42.8625 52.3271 43.906 53.5428 44.3352 54.9965C44.7226 56.3081 44.5373 57.5707 43.8152 58.5514C41.4447 61.7705 38.0402 63.4727 33.9708 63.4727ZM28.6821 59.9625C29.0343 60.2266 29.7403 60.5796 30.526 60.7699C31.7204 61.0596 32.8789 61.2066 33.9715 61.2066C37.3006 61.2066 39.9735 59.8701 41.9149 57.2341C42.3199 56.6845 42.1983 55.9864 42.0899 55.6193C41.8629 54.8502 41.299 54.1507 40.7183 53.9171C40.4034 53.7907 40.142 53.6941 39.9018 53.6941C39.7729 53.6941 39.3804 53.6941 38.7198 54.4106C38.264 54.9077 37.8258 55.4198 37.4061 55.9459C35.8799 57.825 35.1806 58.4627 30.6403 59.3695C29.5323 59.5896 28.964 59.814 28.6821 59.9625ZM37.6668 54.7359C37.3878 54.7354 37.1182 54.6383 36.9067 54.4619C36.6952 54.2856 36.5557 54.0417 36.5134 53.7743C36.4843 53.5862 36.4648 53.3969 36.4548 53.2069C33.4787 53.153 30.6073 51.9145 28.4272 49.7088C25.6708 46.9201 24.4164 43.0563 24.9861 39.1086C25.6049 34.8215 25.3735 31.0372 25.249 29.0041C25.2146 28.4388 25.1897 28.0305 25.1912 27.7478C25.1934 27.3892 25.2007 26.4384 28.4785 24.8271C29.6443 24.254 31.9819 23.2541 34.5354 22.9977C38.766 22.5738 41.5546 24.401 42.3894 28.1434C44.6427 38.2472 42.5681 42.7161 41.053 45.9799C40.771 46.5878 40.5045 47.1616 40.2914 47.7176L40.1032 48.2076C39.3027 50.289 38.6107 52.0871 38.8231 53.4299C38.8464 53.577 38.8396 53.7271 38.8031 53.8716C38.7666 54.0161 38.7011 54.1523 38.6103 54.2722C38.5195 54.3922 38.4052 54.4936 38.274 54.5707C38.1427 54.6478 37.9971 54.6991 37.8455 54.7217L37.6668 54.7359ZM27.5353 28.0617L27.5807 28.8706C27.7096 30.9825 27.9498 34.9124 27.2995 39.4232C26.8301 42.6792 27.8553 45.857 30.1137 48.1408C31.8984 49.946 34.2469 50.9423 36.6606 50.9423H36.7104C36.9806 49.8381 37.4295 48.672 37.9128 47.4158L38.0996 46.9286C38.3405 46.3009 38.6224 45.693 38.9212 45.0496C40.3792 41.908 42.1946 37.9972 40.1039 28.6227C39.6901 26.7657 38.6861 25.6913 37.0363 25.3369C33.6471 24.6112 28.5964 27.0831 27.5353 28.0617ZM34.5874 27.581C34.5288 27.9815 35.3439 29.0509 36.4072 29.1937C37.4683 29.3378 38.3764 28.5013 38.4342 28.1008C38.4921 27.7003 37.6778 27.2586 36.6144 27.1151C35.5519 26.9717 34.6438 27.1804 34.5874 27.581ZM36.6511 29.5878L36.353 29.5679C35.6939 29.4792 35.0275 29.0765 34.5713 28.4899C34.4109 28.284 34.1495 27.8849 34.2015 27.5284C34.2755 27.0057 34.9331 26.6926 35.959 26.6926C36.1882 26.6926 36.427 26.7089 36.6672 26.7416C37.2281 26.8168 37.7488 26.9738 38.1333 27.1819C38.7997 27.5426 38.8487 27.9453 38.8187 28.1533C38.7367 28.7307 37.7898 29.5878 36.6511 29.5878ZM34.9748 27.6477C35.0078 27.8948 35.639 28.7101 36.4607 28.8201L36.6518 28.8329C37.4105 28.8329 37.9773 28.2542 38.0439 28.0646C37.9736 27.9353 37.4859 27.6143 36.561 27.4893C36.3618 27.4616 36.1609 27.4476 35.9598 27.4475C35.3651 27.4475 35.0495 27.5774 34.9748 27.6477ZM66.9071 26.7636C66.965 27.1641 66.1506 28.2336 65.0881 28.377C64.0262 28.5205 63.1174 27.6846 63.0588 27.2841C63.0032 26.8836 63.8175 26.4412 64.8793 26.2984C65.9412 26.1543 66.8485 26.3638 66.9071 26.7636ZM64.8427 28.5815C63.8204 28.5815 62.938 27.8103 62.8655 27.3097C62.7813 26.7089 63.8014 26.2523 64.8515 26.111C65.0829 26.0797 65.3121 26.0641 65.5326 26.0641C66.4392 26.0641 67.0397 26.3219 67.0997 26.738C67.1385 27.0072 66.9254 27.4226 66.5585 27.7975C66.3161 28.044 65.8072 28.4708 65.1137 28.5638L64.8427 28.5815ZM65.5333 26.4419C65.3312 26.4419 65.1203 26.4568 64.9064 26.4852C63.8512 26.628 63.2214 27.0384 63.2522 27.2586C63.2873 27.5007 63.961 28.2045 64.8435 28.2045L65.061 28.1895C65.6373 28.1121 66.0701 27.7471 66.2766 27.5369C66.601 27.2067 66.7299 26.8957 66.7145 26.7899C66.694 26.6493 66.3044 26.4419 65.5333 26.4419ZM68.4369 49.7649C68.2252 49.765 68.0175 49.7093 67.8359 49.6037C67.6543 49.4982 67.5058 49.3467 67.4062 49.1656C67.3066 48.9844 67.2597 48.7804 67.2704 48.5754C67.2812 48.3704 67.3493 48.172 67.4673 48.0016C69.9557 44.3977 69.5002 40.7227 69.0601 37.1685C68.8719 35.6545 68.6786 34.0886 68.7284 32.586C68.7796 31.04 68.9825 29.7646 69.178 28.5311C69.4101 27.0697 69.6298 25.6892 69.539 24.0502C69.5307 23.9016 69.5527 23.7529 69.6037 23.6126C69.6547 23.4723 69.7337 23.3431 69.8362 23.2324C69.9386 23.1216 70.0626 23.0316 70.201 22.9673C70.3393 22.9031 70.4894 22.8659 70.6426 22.8578C70.7958 22.8498 70.9491 22.8711 71.0938 22.9206C71.2385 22.97 71.3718 23.0466 71.4859 23.146C71.6001 23.2454 71.693 23.3656 71.7593 23.4998C71.8255 23.6339 71.8639 23.7795 71.8722 23.928C71.9761 25.8014 71.7279 27.3637 71.4877 28.8755C71.3024 30.0423 71.1106 31.2488 71.0644 32.6584C71.0197 33.9892 71.1948 35.4024 71.38 36.8979C71.8487 40.6773 72.3796 44.9608 69.4094 49.2621C69.3024 49.417 69.1577 49.544 68.9881 49.6317C68.8185 49.7194 68.6291 49.7651 68.4369 49.7649Z" fill="#414868"/>
</svg>
