<svg width="87" height="87" viewBox="0 0 87 87" fill="none" xmlns="http://www.w3.org/2000/svg">
<path d="M43.5 52.3712C47.875 52.3712 51.4217 48.3994 51.4217 43.5C51.4217 38.6006 47.875 34.6288 43.5 34.6288C39.125 34.6288 35.5783 38.6006 35.5783 43.5C35.5783 48.3994 39.125 52.3712 43.5 52.3712Z" fill="#C0CAF5"/>
<path d="M73.5887 28.8703C72.0599 28.2478 70.4617 27.6252 68.7939 27.0805C69.2109 25.2129 69.5583 23.3453 69.8363 21.5555C71.2955 11.2835 69.6973 4.04651 65.25 1.24508C63.9297 0.389087 62.4704 0 60.8027 0C55.9385 0 49.754 4.04651 43.5 10.8166C37.246 4.04651 31.0615 0 26.1973 0C24.5296 0 23.0703 0.389087 21.75 1.24508C17.3027 4.12433 15.7045 11.3614 17.1637 21.5555C17.4417 23.3453 17.7891 25.2129 18.2061 27.0805C16.5383 27.6252 14.9401 28.1699 13.4113 28.8703C4.72524 32.6055 0 37.7415 0 43.5C0 49.2585 4.79473 54.3945 13.4113 58.1297C14.9401 58.7522 16.5383 59.3748 18.2061 59.9195C17.7891 61.7871 17.4417 63.6547 17.1637 65.4445C15.7045 75.7165 17.3027 82.9535 21.75 85.7549C23.0703 86.6109 24.5296 87 26.1973 87C31.131 87 37.3155 82.9535 43.5 76.1834C49.754 82.9535 55.9385 87 60.8027 87C62.4704 87 63.9297 86.6109 65.25 85.7549C69.6973 82.8757 71.2955 75.6386 69.8363 65.4445C69.5583 63.6547 69.2109 61.7871 68.7939 59.9195C70.4617 59.3748 72.0599 58.8301 73.5887 58.1297C82.2748 54.3945 87 49.2585 87 43.5C87 37.7415 82.2748 32.6055 73.5887 28.8703ZM63.3043 5.13596C66.1534 7.00358 67.1262 12.7621 65.9449 20.9329C65.7364 22.5671 65.389 24.2791 64.972 26.0689C61.3586 25.1351 57.5367 24.5125 53.5064 24.1234C51.1438 20.3882 48.7117 17.042 46.2796 14.0072C51.4217 8.32648 56.6334 4.4356 60.8722 4.4356C61.7756 4.4356 62.6094 4.66905 63.3043 5.13596ZM55.5216 51.2818C54.2708 53.7719 52.8115 56.2621 51.2827 58.7522C48.7117 58.9857 46.1406 59.0635 43.5 59.0635C40.7899 59.0635 38.2188 58.9857 35.7173 58.7522C34.1885 56.2621 32.7987 53.7719 31.5479 51.2818C30.2276 48.7138 28.9768 46.068 27.865 43.5C28.9768 40.932 30.2276 38.2862 31.5479 35.7182C32.7987 33.2281 34.258 30.7379 35.7867 28.2478C38.3578 28.0143 40.9289 27.9365 43.5695 27.9365C46.2796 27.9365 48.8506 28.0143 51.3522 28.2478C52.881 30.7379 54.2708 33.2281 55.5216 35.7182C56.8419 38.2862 58.0926 40.932 59.2045 43.5C58.0232 46.068 56.8419 48.636 55.5216 51.2818ZM61.2891 48.7138C62.3315 51.4374 63.1653 54.0832 63.9297 56.729C61.5671 57.3515 59.0655 57.8184 56.4249 58.2075C57.2588 56.729 58.1621 55.1726 58.9265 53.5385C59.7604 51.9043 60.5248 50.2701 61.2891 48.7138ZM43.5 69.8023C41.8323 67.7791 40.234 65.6002 38.7053 63.3435C40.3035 63.4213 41.9018 63.4991 43.5 63.4991C45.0982 63.4991 46.6965 63.4213 48.2947 63.3435C46.766 65.6002 45.1677 67.7791 43.5 69.8023ZM30.5751 58.1297C27.9345 57.7406 25.4329 57.2737 23.0703 56.6512C23.8347 54.0832 24.6685 51.3596 25.7109 48.636C26.4752 50.1923 27.2396 51.8265 28.0735 53.3828C28.9073 55.0948 29.7412 56.5733 30.5751 58.1297ZM25.7109 38.2862C24.6685 35.5626 23.8347 32.9168 23.0703 30.271C25.4329 29.6485 27.9345 29.1816 30.5751 28.7925C29.7412 30.271 28.8379 31.8274 28.0735 33.4615C27.2396 35.0957 26.4752 36.7299 25.7109 38.2862ZM43.5 17.1977C45.1677 19.2209 46.766 21.3998 48.2947 23.6565C46.6965 23.5787 45.0982 23.5009 43.5 23.5009C41.9018 23.5009 40.3035 23.5787 38.7053 23.6565C40.234 21.3998 41.8323 19.2209 43.5 17.1977ZM58.9265 33.5394L56.4249 28.8703C59.0655 29.2594 61.5671 29.7263 63.9297 30.3488C63.1653 32.9168 62.3315 35.6404 61.2891 38.364C60.5248 36.7299 59.7604 35.0957 58.9265 33.5394ZM21.0551 20.9329C19.8738 12.7621 20.8466 7.00358 23.6957 5.13596C24.3906 4.66905 25.2244 4.4356 26.1278 4.4356C30.2971 4.4356 35.5088 8.24866 40.7204 14.0072C38.2883 16.9642 35.8562 20.3882 33.4936 24.1234C29.4633 24.5125 25.6414 25.2129 22.028 26.0689C21.611 24.2791 21.3331 22.5671 21.0551 20.9329ZM3.89137 43.5C3.89137 39.8426 7.85224 35.9517 14.8011 33.0725C16.1909 32.4499 17.7196 31.9052 19.2484 31.4383C20.3602 35.3292 21.75 39.4535 23.4177 43.5778C21.75 47.7021 20.2907 51.7487 19.2484 55.6395C9.65895 52.5268 3.89137 47.8578 3.89137 43.5ZM23.6957 81.864C20.8466 79.9964 19.8738 74.2379 21.0551 66.0671C21.2636 64.4329 21.611 62.7209 22.028 60.9311C25.6414 61.8649 29.4633 62.4875 33.4936 62.8766C35.8562 66.6118 38.2883 69.958 40.7204 72.9928C35.5783 78.6735 30.3666 82.5644 26.1278 82.5644C25.2244 82.5644 24.3906 82.3309 23.6957 81.864ZM65.9449 66.0671C67.1262 74.2379 66.1534 79.9964 63.3043 81.864C62.6094 82.3309 61.7756 82.5644 60.8722 82.5644C56.7029 82.5644 51.4912 78.7513 46.2796 72.9928C48.7117 70.0358 51.1438 66.6118 53.5064 62.8766C57.5367 62.4875 61.3586 61.7871 64.972 60.9311C65.389 62.7209 65.6669 64.4329 65.9449 66.0671ZM72.1989 53.9276C70.8091 54.5501 69.2804 55.0948 67.7516 55.5617C66.6398 51.6708 65.25 47.5465 63.5823 43.4222C65.25 39.2979 66.7093 35.2513 67.7516 31.3605C77.3411 34.4732 83.1086 39.1422 83.1086 43.5C83.1086 47.1574 79.0783 51.0483 72.1989 53.9276Z" fill="#C0CAF5"/>
</svg>
