<svg width="87" height="87" viewBox="0 0 87 87" fill="none" xmlns="http://www.w3.org/2000/svg">
<path d="M72.3332 69.7839L56.7207 43.5029L72.3332 17.2103L79.8697 43.4971L72.3303 69.7781L72.3332 69.7839ZM37.5402 67.2602L17.9071 47.7757H49.1175L64.7242 74.0596L37.5373 67.266L37.5402 67.2602ZM37.5402 19.7398L64.7242 12.9462L49.1204 39.2301H17.9042L37.5402 19.7398ZM87 34.5569L77.4793 0L41.9408 9.26217L36.6844 18.2894L26.0092 18.2111L0 43.5029L26.0121 68.7976L36.6815 68.7135L41.9524 77.7407L77.4764 87L87 52.4576L81.5928 43.5029L87 34.5569Z" fill="#C0CAF5"/>
</svg>
