<svg width="87" height="87" viewBox="0 0 87 87" fill="none" xmlns="http://www.w3.org/2000/svg">
<path d="M86.712 12.8756L45.8446 85.8643C45.0001 87.3714 42.8323 87.38 41.9764 85.8814L0.29786 12.8842C-0.636282 11.2484 0.761729 9.26949 2.61792 9.59991L43.5295 16.9025C43.7906 16.9501 44.0581 16.9501 44.3192 16.9025L84.3742 9.61127C86.2225 9.27517 87.6291 11.2378 86.712 12.8756Z" fill="#414868"/>
<path d="M63.0163 0.0213788L32.7751 5.93903C32.5337 5.98614 32.3149 6.11198 32.1529 6.2968C31.9909 6.48162 31.8949 6.71494 31.8801 6.96013L30.0182 38.3447C30.0082 38.5168 30.0385 38.6889 30.1066 38.8473C30.1747 39.0057 30.2788 39.1461 30.4106 39.2574C30.5425 39.3687 30.6984 39.4478 30.8662 39.4884C31.0339 39.5291 31.2089 39.5302 31.3771 39.4916L39.7979 37.5482C39.9792 37.5065 40.1682 37.5111 40.3473 37.5613C40.5265 37.6116 40.6901 37.706 40.8232 37.8358C40.9563 37.9657 41.0547 38.1268 41.1092 38.3045C41.1638 38.4822 41.1728 38.6707 41.1354 38.8528L38.6332 51.0881C38.595 51.2765 38.6064 51.4715 38.6662 51.6541C38.7261 51.8367 38.8324 52.0007 38.9747 52.1299C39.1171 52.2592 39.2906 52.3494 39.4783 52.3916C39.666 52.4338 39.8614 52.4266 40.0455 52.3707L45.2448 50.7911C46.0509 50.5467 46.8264 51.2544 46.657 52.0787L42.68 71.2976C42.4324 72.4998 44.0332 73.155 44.7005 72.1247L45.1452 71.4368L69.79 22.3149C70.2041 21.4906 69.4905 20.5527 68.5877 20.7275L59.9186 22.3988C59.732 22.4349 59.5393 22.4226 59.3589 22.363C59.1785 22.3034 59.0165 22.1984 58.8884 22.0582C58.7603 21.918 58.6704 21.7473 58.6275 21.5624C58.5845 21.3775 58.5898 21.1847 58.6429 21.0025L64.299 1.41766C64.3522 1.23479 64.3573 1.04132 64.3139 0.855901C64.2704 0.670485 64.1799 0.499373 64.051 0.359062C63.9221 0.218751 63.7591 0.113972 63.5779 0.0548257C63.3967 -0.00432077 63.2032 -0.0158399 63.0163 0.0213788Z" fill="#C0CAF5"/>
</svg>
