<svg width="88" height="87" viewBox="0 0 88 87" fill="none" xmlns="http://www.w3.org/2000/svg">
<path d="M84.3489 9.19897L66.358 0.543771C64.2646 -0.467414 61.7749 -0.041076 60.1378 1.59595L25.6783 33.0383L10.6608 21.6502C9.26704 20.5816 7.30206 20.6691 6.00665 21.8497L1.19669 26.2333C-0.396611 27.6709 -0.396611 30.177 1.18302 31.6145L14.2082 43.5L1.18302 55.3855C-0.396611 56.823 -0.396611 59.3291 1.19669 60.7667L6.00665 65.1503C7.31572 66.3309 9.26704 66.4184 10.6608 65.3498L25.6783 53.948L60.1542 85.4041C61.7776 87.0411 64.2673 87.4674 66.3607 86.4562L84.368 77.7874C86.2619 76.8773 87.4562 74.9697 87.4562 72.8626V14.1182C87.4562 12.0248 86.2456 10.1036 84.3544 9.1935L84.3489 9.19897ZM65.601 63.3602L39.4386 43.5027L65.601 23.6452V63.3602Z" fill="#C0CAF5"/>
</svg>
